#define vol_mute_width 16
#define vol_mute_height 16
static unsigned char vol_mute_bits[] = {
   0x00, 0x00, 0x00, 0x00, 0x00, 0x01, 0x80, 0x11, 0xc0, 0x09, 0xfc, 0x05,
   0xfc, 0x02, 0x7c, 0x01, 0xbc, 0x00, 0x5c, 0x01, 0xac, 0x01, 0xd0, 0x01,
   0x88, 0x01, 0x04, 0x01, 0x00, 0x00, 0x00, 0x00 };
